<mxfile host="app.diagrams.net" modified="2022-11-20T02:45:12.234Z" agent="5.0 (Macintosh; Intel Mac OS X 10_15_7) AppleWebKit/537.36 (KHTML, like Gecko) Chrome/107.0.0.0 Safari/537.36" etag="PKp1g7jjlrsmWIGRGm7z" version="20.5.3" type="github">
  <diagram id="P4hrTo7IcWHyGJP2rmx5" name="第 1 页">
    <mxGraphModel dx="1426" dy="794" grid="1" gridSize="10" guides="1" tooltips="1" connect="1" arrows="1" fold="1" page="1" pageScale="1" pageWidth="827" pageHeight="1169" math="0" shadow="0">
      <root>
        <mxCell id="0" />
        <mxCell id="1" parent="0" />
        <mxCell id="T4Z4w7hZkonWdc-dAQqZ-5" style="edgeStyle=orthogonalEdgeStyle;rounded=0;orthogonalLoop=1;jettySize=auto;html=1;entryX=0.5;entryY=0;entryDx=0;entryDy=0;" edge="1" parent="1" source="T4Z4w7hZkonWdc-dAQqZ-1" target="T4Z4w7hZkonWdc-dAQqZ-3">
          <mxGeometry relative="1" as="geometry" />
        </mxCell>
        <mxCell id="T4Z4w7hZkonWdc-dAQqZ-1" value="Browser&amp;nbsp;" style="rounded=0;whiteSpace=wrap;html=1;" vertex="1" parent="1">
          <mxGeometry x="320" y="110" width="110" height="40" as="geometry" />
        </mxCell>
        <mxCell id="T4Z4w7hZkonWdc-dAQqZ-6" style="edgeStyle=orthogonalEdgeStyle;rounded=0;orthogonalLoop=1;jettySize=auto;html=1;entryX=0.5;entryY=0;entryDx=0;entryDy=0;" edge="1" parent="1" source="T4Z4w7hZkonWdc-dAQqZ-3" target="T4Z4w7hZkonWdc-dAQqZ-4">
          <mxGeometry relative="1" as="geometry" />
        </mxCell>
        <mxCell id="T4Z4w7hZkonWdc-dAQqZ-7" value="Y" style="edgeLabel;html=1;align=center;verticalAlign=middle;resizable=0;points=[];" vertex="1" connectable="0" parent="T4Z4w7hZkonWdc-dAQqZ-6">
          <mxGeometry x="-0.3" y="1" relative="1" as="geometry">
            <mxPoint as="offset" />
          </mxGeometry>
        </mxCell>
        <mxCell id="T4Z4w7hZkonWdc-dAQqZ-9" style="edgeStyle=orthogonalEdgeStyle;rounded=0;orthogonalLoop=1;jettySize=auto;html=1;entryX=0;entryY=0.5;entryDx=0;entryDy=0;" edge="1" parent="1" source="T4Z4w7hZkonWdc-dAQqZ-3" target="T4Z4w7hZkonWdc-dAQqZ-8">
          <mxGeometry relative="1" as="geometry" />
        </mxCell>
        <mxCell id="T4Z4w7hZkonWdc-dAQqZ-10" value="N" style="edgeLabel;html=1;align=center;verticalAlign=middle;resizable=0;points=[];" vertex="1" connectable="0" parent="T4Z4w7hZkonWdc-dAQqZ-9">
          <mxGeometry x="-0.2533" relative="1" as="geometry">
            <mxPoint as="offset" />
          </mxGeometry>
        </mxCell>
        <mxCell id="T4Z4w7hZkonWdc-dAQqZ-3" value="First fetch" style="rhombus;whiteSpace=wrap;html=1;" vertex="1" parent="1">
          <mxGeometry x="335" y="210" width="80" height="80" as="geometry" />
        </mxCell>
        <mxCell id="T4Z4w7hZkonWdc-dAQqZ-14" value="" style="edgeStyle=orthogonalEdgeStyle;rounded=0;orthogonalLoop=1;jettySize=auto;html=1;" edge="1" parent="1" source="T4Z4w7hZkonWdc-dAQqZ-4" target="T4Z4w7hZkonWdc-dAQqZ-13">
          <mxGeometry relative="1" as="geometry" />
        </mxCell>
        <mxCell id="T4Z4w7hZkonWdc-dAQqZ-4" value="BE server response" style="rounded=0;whiteSpace=wrap;html=1;" vertex="1" parent="1">
          <mxGeometry x="315" y="350" width="120" height="60" as="geometry" />
        </mxCell>
        <mxCell id="T4Z4w7hZkonWdc-dAQqZ-12" style="edgeStyle=orthogonalEdgeStyle;rounded=0;orthogonalLoop=1;jettySize=auto;html=1;entryX=1;entryY=0.5;entryDx=0;entryDy=0;" edge="1" parent="1" source="T4Z4w7hZkonWdc-dAQqZ-8" target="T4Z4w7hZkonWdc-dAQqZ-1">
          <mxGeometry relative="1" as="geometry">
            <Array as="points">
              <mxPoint x="630" y="250" />
              <mxPoint x="630" y="130" />
            </Array>
          </mxGeometry>
        </mxCell>
        <mxCell id="T4Z4w7hZkonWdc-dAQqZ-8" value="Browser server&lt;br&gt;cache read" style="rounded=0;whiteSpace=wrap;html=1;" vertex="1" parent="1">
          <mxGeometry x="490" y="220" width="120" height="60" as="geometry" />
        </mxCell>
        <mxCell id="T4Z4w7hZkonWdc-dAQqZ-15" style="edgeStyle=orthogonalEdgeStyle;rounded=0;orthogonalLoop=1;jettySize=auto;html=1;entryX=0;entryY=0.5;entryDx=0;entryDy=0;" edge="1" parent="1" source="T4Z4w7hZkonWdc-dAQqZ-13" target="T4Z4w7hZkonWdc-dAQqZ-1">
          <mxGeometry relative="1" as="geometry">
            <Array as="points">
              <mxPoint x="240" y="500" />
              <mxPoint x="240" y="130" />
            </Array>
          </mxGeometry>
        </mxCell>
        <mxCell id="T4Z4w7hZkonWdc-dAQqZ-13" value="Browser server&lt;br&gt;cache write" style="rounded=0;whiteSpace=wrap;html=1;" vertex="1" parent="1">
          <mxGeometry x="315" y="470" width="120" height="60" as="geometry" />
        </mxCell>
        <mxCell id="T4Z4w7hZkonWdc-dAQqZ-17" style="edgeStyle=orthogonalEdgeStyle;rounded=0;orthogonalLoop=1;jettySize=auto;html=1;entryX=1;entryY=0.5;entryDx=0;entryDy=0;" edge="1" parent="1" source="T4Z4w7hZkonWdc-dAQqZ-16" target="T4Z4w7hZkonWdc-dAQqZ-4">
          <mxGeometry relative="1" as="geometry" />
        </mxCell>
        <mxCell id="T4Z4w7hZkonWdc-dAQqZ-16" value="Manual" style="rounded=0;whiteSpace=wrap;html=1;" vertex="1" parent="1">
          <mxGeometry x="491" y="350" width="120" height="60" as="geometry" />
        </mxCell>
      </root>
    </mxGraphModel>
  </diagram>
</mxfile>
